<?xml version="1.0" encoding="UTF-8" standalone="no"?>
<svg id="container" viewBox="0 0 6 4" version="1.1"
   xmlns="http://www.w3.org/2000/svg"
   xmlns:svg="http://www.w3.org/2000/svg">
   <defs id="defs24" />
   <rect x="0" y="0" width="1" height="1" fill="#735244"/>
   <rect x="1" y="0" width="1" height="1" fill="#c29682"/>
   <rect x="2" y="0" width="1" height="1" fill="#627a9d"/>
   <rect x="3" y="0" width="1" height="1" fill="#576c43"/>
   <rect x="4" y="0" width="1" height="1" fill="#8580b1"/>
   <rect x="5" y="0" width="1" height="1" fill="#67bdaa"/>
   <rect x="0" y="1" width="1" height="1" fill="#d67e2c"/>
   <rect x="1" y="1" width="1" height="1" fill="#505ba6"/>
   <rect x="2" y="1" width="1" height="1" fill="#c15a63"/>
   <rect x="3" y="1" width="1" height="1" fill="#5e3c6c"/>
   <rect x="4" y="1" width="1" height="1" fill="#9dbc40"/>
   <rect x="5" y="1" width="1" height="1" fill="#e0a32e"/>
   <rect x="0" y="2" width="1" height="1" fill="#383d96"/>
   <rect x="1" y="2" width="1" height="1" fill="#469449"/>
   <rect x="2" y="2" width="1" height="1" fill="#af363c"/>
   <rect x="3" y="2" width="1" height="1" fill="#e7c71f"/>
   <rect x="4" y="2" width="1" height="1" fill="#bb5695"/>
   <rect x="5" y="2" width="1" height="1" fill="#0885a1"/>
   <rect x="0" y="3" width="1" height="1" fill="#f3f3f3"/>
   <rect x="1" y="3" width="1" height="1" fill="#c8c8c8"/>
   <rect x="2" y="3" width="1" height="1" fill="#a0a0a0"/>
   <rect x="3" y="3" width="1" height="1" fill="#7a7a7a"/>
   <rect x="4" y="3" width="1" height="1" fill="#555555"/>
   <rect x="5" y="3" width="1" height="1" fill="#343434"/>
</svg>
